<svg xmlns="http://www.w3.org/2000/svg" xmlns:xlink="http://www.w3.org/1999/xlink">
    <symbol id="total-trial"  viewBox="0 0 57 25" width="57" height="25">
     <path d="M1.82959 16.2994C2.64483 21.517 5.05796 28.8216 8.18849 16.2994C10.6342 9.45136 11.1234 7.00563 12.5908 10.9188C14.0583 13.8537 14.5474 14.3428 16.0148 10.9188C17.4823 7.49478 17.9714 5.53819 19.4389 9.45137C20.9063 13.3645 20.9063 12.8754 22.8629 12.3862C24.8195 11.8971 25.7978 12.8754 26.2869 13.8537C26.7761 14.832 27.7544 15.3211 29.2218 13.8537C30.6892 12.3862 32.6458 11.8971 33.135 14.832C33.6241 17.7669 35.0916 21.68 36.0698 18.256C36.559 13.8537 37.0481 7.00563 40.4722 2.60331C41.9396 1.13587 42.9179 2.60331 42.9179 3.58161C42.9179 4.36424 43.8962 13.0384 44.3853 17.2777C44.7114 17.9299 45.7549 19.1365 47.3202 18.7451C48.2985 18.256 49.2768 17.7669 50.2551 18.7451C51.2334 19.7234 52.2117 20.2126 53.19 18.256C53.9726 16.6907 54.8205 14.6689 55.1466 13.8537" stroke="#017BFF" stroke-width="2"/>
    </symbol>
    <symbol id="ongoing" viewBox="0 0 61 25" width="61" height="25">
    <path d="M1.54004 12.9755C1.54004 12.1939 2.29313 11.63 2.29313 10.7163C2.29313 9.71213 2.29313 8.70801 2.29313 7.70389C2.29313 6.8169 2.18912 6.04579 2.90676 5.43068C3.89582 4.58291 3.69519 4.71159 4.80343 5.38884C6.55554 6.45958 6.10096 8.67285 7.20215 10.0887C8.18207 11.3486 9.25064 13.1573 10.9676 12.585C12.8003 11.9741 15.2455 9.59309 16.1555 7.95492C17.4243 5.67123 19.6113 6.38966 20.9809 7.95492C21.479 8.52424 21.2405 9.66728 21.999 10.0887C22.7303 10.4949 24.2347 8.71762 24.7463 8.20595C25.8186 7.13374 26.6079 5.90004 27.5356 4.71943C28.0894 4.01451 29.0009 3.5438 29.5996 2.87854C30.5436 1.82965 30.8725 3.74071 31.6078 4.32894C32.4739 5.02178 33.4864 6.7633 33.6718 7.82941C33.858 8.89987 34.3228 10.6082 34.9549 11.5112C35.5473 12.3575 36.3911 14.3358 36.4332 15.43C36.4891 16.8833 37.0507 16.741 38.3298 16.741C39.4097 16.741 39.6524 16.7601 40.4636 17.3685C40.876 17.6778 41.8726 19.3111 42.2626 19.1955C43.7934 18.7419 44.3262 17.2098 44.6893 15.8484C44.8567 15.2205 44.688 14.5179 44.8427 13.8681C45.0135 13.1504 45.5495 12.6447 45.7213 11.9575C45.9482 11.0497 47.0667 8.97682 48.0363 10.521C49.7299 13.2182 50.4908 17.0932 50.4908 20.2693C50.4908 20.9625 50.7264 23.5256 51.997 22.9609C53.0757 22.4815 53.5857 20.1011 54.0192 19.1257C54.8454 17.2668 55.4305 15.4384 56.1251 13.5334C57.5655 9.58253 59.2769 5.47652 59.2769 1.17712" stroke="#FC794C" stroke-width="2" stroke-linecap="round"/>
    </symbol>
    <symbol id="patients" width="59" height="30" viewBox="0 0 59 30" >
        <path d="M1.52881 9.89277C2.03087 6.71306 3.83828 2.26146 7.05146 9.89277C11.57 17.9257 13.0762 21.9422 17.0927 15.9175C21.1091 9.89277 24.1215 11.3989 25.6277 15.9175C26.1297 18.4278 27.1338 19.934 28.64 15.9175C29.845 12.7043 31.485 6.211 32.1544 3.36599C32.4891 1.69246 33.4598 -0.650483 34.6647 3.36599C35.8697 7.38247 37.175 12.7378 37.6771 14.9134C38.8486 16.9216 41.4927 20.3356 42.6977 17.9257C44.2039 14.9134 45.208 12.4031 46.2121 15.9175C47.2162 19.4319 48.7224 22.4443 49.7265 23.4484C50.7306 24.4525 52.2368 25.9587 52.7389 23.4484C53.1405 21.4401 53.5756 17.591 53.743 15.9175C54.4124 14.746 55.8516 13.608 56.2533 18.4278C56.6549 23.2476 57.0901 27.7996 57.2574 29.4731" stroke="#00BCFF" stroke-width="2"/>
    </symbol>
    <symbol id="time" width="54" height="24" viewBox="0 0 54 24" >
        <path d="M1.6582 17.2818C2.66232 13.2653 4.9718 6.03564 6.17674 9.24882C7.68292 13.2653 8.18498 15.2735 10.1932 12.2612C12.2015 9.24882 15.2138 7.24055 16.72 12.2612C17.9249 16.2777 19.2303 19.29 19.7323 20.2941C21.0712 21.9676 23.8492 24.0094 24.2509 18.7879C24.6525 13.5665 26.7612 5.56703 27.7653 2.21997C28.6021 1.0485 30.376 -0.0895035 30.7777 4.73027C31.2797 10.755 31.7818 19.29 34.7941 14.2694C37.8065 9.24882 39.3127 9.24882 40.8188 9.24882C42.325 9.24882 44.8353 9.24882 47.3456 9.24882C49.8559 9.24882 49.8559 11.7591 52.8683 9.24882" stroke="#1DAB2D" stroke-width="2"/>
    </symbol>
   
</svg>